<svg width="1200" height="1200" viewBox="0 0 1200 1200" fill="none" xmlns="http://www.w3.org/2000/svg">
  <defs>
    <filter id="soften" x="-20%" y="-20%" width="140%" height="140%">
      <feGaussianBlur stdDeviation="12" />
    </filter>
  </defs>
  <circle cx="600" cy="600" r="520" fill="#E8DFCF" fill-opacity="0.16" />
  <circle cx="870" cy="308" r="116" fill="#53D9D1" fill-opacity="0.1" />
  <circle cx="286" cy="904" r="148" fill="#FF8F4A" fill-opacity="0.12" />
  <path d="M206 446C312 290 510 198 710 220C876 238 1022 328 1086 462" stroke="#53D9D1" stroke-opacity="0.22" stroke-width="20" stroke-linecap="round" />
  <path d="M162 920C356 1022 682 1048 944 944" stroke="#FF8F4A" stroke-opacity="0.18" stroke-width="18" stroke-linecap="round" />
  <rect x="334" y="732" width="452" height="168" rx="48" fill="#111318" fill-opacity="0.08" stroke="white" stroke-opacity="0.08" />
  <rect x="382" y="776" width="186" height="16" rx="8" fill="#53D9D1" fill-opacity="0.3" />
  <rect x="382" y="812" width="286" height="14" rx="7" fill="white" fill-opacity="0.12" />
  <rect x="382" y="842" width="216" height="14" rx="7" fill="white" fill-opacity="0.08" />
  <image href="./nitpickr-mascot.png" x="146" y="160" width="910" height="910" opacity="0.38" filter="url(#soften)" />
</svg>
