<svg width="1200" height="1200" viewBox="0 0 1200 1200" fill="none" xmlns="http://www.w3.org/2000/svg">
  <defs>
    <linearGradient id="ogBackground" x1="76" y1="58" x2="1124" y2="1146" gradientUnits="userSpaceOnUse">
      <stop stop-color="#171C23" />
      <stop offset="1" stop-color="#0E1117" />
    </linearGradient>
    <linearGradient id="ogCard" x1="122" y1="156" x2="1068" y2="1042" gradientUnits="userSpaceOnUse">
      <stop stop-color="#202734" />
      <stop offset="1" stop-color="#141A22" />
    </linearGradient>
    <filter id="ogShadow" x="388" y="164" width="682" height="822" filterUnits="userSpaceOnUse" color-interpolation-filters="sRGB">
      <feOffset dy="24" />
      <feGaussianBlur stdDeviation="28" />
      <feColorMatrix type="matrix" values="0 0 0 0 0.027451 0 0 0 0 0.0431373 0 0 0 0 0.0823529 0 0 0 0.42 0" />
      <feBlend in2="SourceGraphic" result="shape" />
    </filter>
  </defs>
  <rect x="24" y="24" width="1152" height="1152" rx="64" fill="url(#ogBackground)" />
  <circle cx="840" cy="392" r="238" fill="#E8DFCF" fill-opacity="0.94" />
  <circle cx="982" cy="220" r="96" fill="#53D9D1" fill-opacity="0.16" />
  <circle cx="830" cy="930" r="118" fill="#FF8F4A" fill-opacity="0.12" />
  <path d="M612 258C704 188 866 176 1010 244" stroke="#53D9D1" stroke-width="16" stroke-linecap="round" opacity="0.24" />
  <path d="M142 910C298 1004 564 1028 780 952" stroke="#FF8F4A" stroke-width="14" stroke-linecap="round" opacity="0.18" />

  <rect x="102" y="116" width="528" height="968" rx="54" fill="url(#ogCard)" stroke="rgba(255,255,255,0.08)" />
  <text x="152" y="196" fill="#53D9D1" font-family="IBM Plex Mono, monospace" font-size="26" letter-spacing="2.6">SOURCE-AVAILABLE • SELF-HOSTED</text>
  <text x="152" y="314" fill="#F5F2EB" font-family="Space Grotesk, sans-serif" font-size="120" font-weight="700">nitpickr</text>
  <text x="152" y="402" fill="#F5F2EB" font-family="Space Grotesk, sans-serif" font-size="56" font-weight="500">AI code review you run</text>
  <text x="152" y="470" fill="#F5F2EB" font-family="Space Grotesk, sans-serif" font-size="56" font-weight="500">on your own terms.</text>
  <text x="152" y="590" fill="#C5BFAF" font-family="IBM Plex Sans, sans-serif" font-size="34">GitHub App reviews, repository instructions,</text>
  <text x="152" y="636" fill="#C5BFAF" font-family="IBM Plex Sans, sans-serif" font-size="34">model control, and infrastructure choice.</text>
  <rect x="152" y="708" width="210" height="60" rx="30" fill="#FF8F4A" />
  <text x="198" y="748" fill="#101319" font-family="IBM Plex Sans, sans-serif" font-size="28" font-weight="600">rubenspessoa.dev</text>

  <g>
    <rect x="152" y="836" width="282" height="158" rx="30" fill="#161C23" stroke="rgba(255,255,255,0.12)" />
    <text x="190" y="890" fill="#53D9D1" font-family="IBM Plex Mono, monospace" font-size="24">@nitpickr review</text>
    <rect x="190" y="918" width="152" height="12" rx="6" fill="#F5F2EB" fill-opacity="0.18" />
    <rect x="190" y="944" width="112" height="12" rx="6" fill="#BEDF2A" fill-opacity="0.5" />
    <rect x="190" y="970" width="78" height="12" rx="6" fill="#FF8F4A" fill-opacity="0.34" />
  </g>

  <g filter="url(#ogShadow)">
    <image href="./nitpickr-mascot.png" x="456" y="224" width="558" height="558" />
  </g>

  <g>
    <rect x="700" y="716" width="282" height="158" rx="30" fill="#161C23" stroke="rgba(255,255,255,0.12)" />
    <text x="738" y="770" fill="#53D9D1" font-family="IBM Plex Mono, monospace" font-size="24">nitpickr / review</text>
    <rect x="738" y="798" width="152" height="12" rx="6" fill="#F5F2EB" fill-opacity="0.18" />
    <rect x="738" y="824" width="98" height="12" rx="6" fill="#53D9D1" fill-opacity="0.7" />
    <circle cx="930" cy="808" r="18" fill="#BEDF2A" />
  </g>
</svg>
