<svg width="512" height="512" viewBox="0 0 512 512" fill="none" xmlns="http://www.w3.org/2000/svg">
  <defs>
    <linearGradient id="bg" x1="56" y1="44" x2="456" y2="472" gradientUnits="userSpaceOnUse">
      <stop stop-color="#181D25" />
      <stop offset="1" stop-color="#0E1117" />
    </linearGradient>
    <radialGradient id="glow" cx="0" cy="0" r="1" gradientUnits="userSpaceOnUse" gradientTransform="translate(258 238) rotate(90) scale(208)">
      <stop stop-color="#F8F1E7" />
      <stop offset="1" stop-color="#E8DFCF" />
    </radialGradient>
    <linearGradient id="irisLeft" x1="146" y1="174" x2="248" y2="272" gradientUnits="userSpaceOnUse">
      <stop stop-color="#D6F45B" />
      <stop offset="1" stop-color="#8FC31E" />
    </linearGradient>
    <linearGradient id="irisRight" x1="264" y1="174" x2="366" y2="272" gradientUnits="userSpaceOnUse">
      <stop stop-color="#D6F45B" />
      <stop offset="1" stop-color="#8FC31E" />
    </linearGradient>
    <filter id="shadow" x="30" y="34" width="452" height="452" filterUnits="userSpaceOnUse" color-interpolation-filters="sRGB">
      <feOffset dy="18" />
      <feGaussianBlur stdDeviation="18" />
      <feColorMatrix type="matrix" values="0 0 0 0 0.027451 0 0 0 0 0.0431373 0 0 0 0 0.0823529 0 0 0 0.34 0" />
      <feBlend in2="SourceGraphic" result="shape" />
    </filter>
  </defs>
  <rect x="32" y="32" width="448" height="448" rx="132" fill="url(#bg)" />
  <path d="M92 150C146 100 222 78 298 88" stroke="#FF8F4A" stroke-opacity="0.24" stroke-width="16" stroke-linecap="round" />
  <path d="M324 96C376 108 418 138 442 184" stroke="#53D9D1" stroke-opacity="0.34" stroke-width="14" stroke-linecap="round" />
  <g filter="url(#shadow)">
    <circle cx="256" cy="258" r="176" fill="url(#glow)" />
  </g>
  <circle cx="193" cy="246" r="64" fill="url(#irisLeft)" />
  <circle cx="319" cy="246" r="64" fill="url(#irisRight)" />
  <circle cx="193" cy="246" r="36" fill="#101319" />
  <circle cx="319" cy="246" r="36" fill="#101319" />
  <circle cx="180" cy="230" r="12" fill="#FFFFFF" />
  <circle cx="306" cy="230" r="12" fill="#FFFFFF" />
  <circle cx="187" cy="237" r="5" fill="#FFFFFF" fill-opacity="0.5" />
  <circle cx="313" cy="237" r="5" fill="#FFFFFF" fill-opacity="0.5" />
  <rect x="120" y="184" width="146" height="118" rx="58" stroke="#0F1218" stroke-width="18" />
  <rect x="246" y="184" width="146" height="118" rx="58" stroke="#0F1218" stroke-width="18" />
  <path d="M263 224H249C238.507 224 230 232.507 230 243V243" stroke="#0F1218" stroke-width="18" stroke-linecap="round" />
  <path d="M256 284L238 314H274L256 284Z" fill="#F4A328" />
  <path d="M224 334C241 348 271 350 289 334" stroke="#C9BDAA" stroke-width="14" stroke-linecap="round" />
  <circle cx="384" cy="138" r="56" fill="#BEE12A" />
  <circle cx="384" cy="138" r="43" fill="#D5F063" fill-opacity="0.26" />
  <path d="M360 138L377 155L411 121" stroke="#101319" stroke-width="18" stroke-linecap="round" stroke-linejoin="round" />
</svg>
